<svg xmlns="http://www.w3.org/2000/svg" xmlns:xlink="http://www.w3.org/1999/xlink" version="1.0" x="0" y="0" width="2400" height="2017.1144933378177" viewBox="78.71509719848633 48.27829147338867 182.56980560302733 153.44341705322265" preserveAspectRatio="xMidYMid meet" color-interpolation-filters="sRGB"><g><defs><linearGradient id="92" x1="0%" y1="0%" x2="100%" y2="0%"><stop offset="0%" stop-color="#fa71cd"></stop> <stop offset="100%" stop-color="#9b59b6"></stop></linearGradient><linearGradient id="93" x1="0%" y1="0%" x2="100%" y2="0%"><stop offset="0%" stop-color="#f9d423"></stop> <stop offset="100%" stop-color="#f83600"></stop></linearGradient><linearGradient id="94" x1="0%" y1="0%" x2="100%" y2="0%"><stop offset="0%" stop-color="#0064d2"></stop> <stop offset="100%" stop-color="#1cb0f6"></stop></linearGradient><linearGradient id="95" x1="0%" y1="0%" x2="100%" y2="0%"><stop offset="0%" stop-color="#f00978"></stop> <stop offset="100%" stop-color="#3f51b1"></stop></linearGradient><linearGradient id="96" x1="0%" y1="0%" x2="100%" y2="0%"><stop offset="0%" stop-color="#7873f5"></stop> <stop offset="100%" stop-color="#ec77ab"></stop></linearGradient><linearGradient id="97" x1="0%" y1="0%" x2="100%" y2="0%"><stop offset="0%" stop-color="#f9d423"></stop> <stop offset="100%" stop-color="#e14fad"></stop></linearGradient><linearGradient id="98" x1="0%" y1="0%" x2="100%" y2="0%"><stop offset="0%" stop-color="#009efd"></stop> <stop offset="100%" stop-color="#2af598"></stop></linearGradient><linearGradient id="99" x1="0%" y1="0%" x2="100%" y2="0%"><stop offset="0%" stop-color="#ffcc00"></stop> <stop offset="100%" stop-color="#00b140"></stop></linearGradient><linearGradient id="100" x1="0%" y1="0%" x2="100%" y2="0%"><stop offset="0%" stop-color="#d51007"></stop> <stop offset="100%" stop-color="#ff8177"></stop></linearGradient><linearGradient id="102" x1="0%" y1="0%" x2="100%" y2="0%"><stop offset="0%" stop-color="#a2b6df"></stop> <stop offset="100%" stop-color="#0c3483"></stop></linearGradient><linearGradient id="103" x1="0%" y1="0%" x2="100%" y2="0%"><stop offset="0%" stop-color="#7ac5d8"></stop> <stop offset="100%" stop-color="#eea2a2"></stop></linearGradient><linearGradient id="104" x1="0%" y1="0%" x2="100%" y2="0%"><stop offset="0%" stop-color="#00ecbc"></stop> <stop offset="100%" stop-color="#007adf"></stop></linearGradient><linearGradient id="105" x1="0%" y1="0%" x2="100%" y2="0%"><stop offset="0%" stop-color="#b88746"></stop> <stop offset="100%" stop-color="#fdf5a6"></stop></linearGradient></defs><g class="iconmbgsvg" transform="translate(80.50499725341797,50.06819152832031)"><g fill="#ffe599" hollow-target="textRect"><g transform="translate(14.495002746582031,0)" mask="url(#91dafe94-214e-4c8d-a1d6-122bd17f9e11)"><g><rect fill="#ffe599" fill-opacity="0" stroke-width="2" x="0" y="0" width="150" height="149.86362410206712" class="image-rect"></rect> <svg filter="url(#colors2989879441)" x="0" y="0" width="150" height="149.86362410206712" filtersec="colorsf2421842673" class="image-svg-svg primary" style="overflow: visible;"><svg xmlns="http://www.w3.org/2000/svg" viewBox="0.7999999999999998 0.7999999999999998 114.5 114.4"><path d="M105.5 65.8l-47.4 47.4-7.8-7.8L90 65.7 58.1 34l7.8-7.8 31.9 31.9 7.7 7.7zM58.1 49.5l16.3 16.3 7.8-7.8-16.4-16.2-7.7 7.7zM34 58.1l16.3 16.3 7.8-7.8-16.3-16.3-7.8 7.8zm32.6 0L50.3 74.3l7.8 7.8 16.3-16.3-7.8-7.7zM58.1 34L41.8 50.3l7.8 7.8 16.3-16.3-7.8-7.8zm24 24.1L50.3 89.9 10.6 50.3l-7.8 7.8 47.4 47.4 7.8-7.8 31.9-31.9-7.8-7.7zm31.2 0L65.8 10.6 58 18.4 26.2 50.3l7.8 7.8 31.9-31.9 39.7 39.7 7.7-7.8zM65.8 10.6L58 2.8 10.6 50.3l7.8 7.8L50.3 90l7.8-7.8-31.9-31.9 39.6-39.7z" fill="none" stroke="#202121" stroke-width="4" stroke-miterlimit="10"></path></svg></svg> <defs><filter id="colors2989879441"><feColorMatrix type="matrix" values="0 0 0 0 0.99609375  0 0 0 0 0.89453125  0 0 0 0 0.59765625  0 0 0 1 0" class="icon-feColorMatrix "></feColorMatrix></filter> <filter id="colorsf2421842673"><feColorMatrix type="matrix" values="0 0 0 0 0.99609375  0 0 0 0 0.99609375  0 0 0 0 0.99609375  0 0 0 1 0" class="icon-fecolormatrix"></feColorMatrix></filter> <filter id="colorsb2406924129"><feColorMatrix type="matrix" values="0 0 0 0 0  0 0 0 0 0  0 0 0 0 0  0 0 0 1 0" class="icon-fecolormatrix"></feColorMatrix></filter></defs></g></g> <g transform="translate(0,62.19180774688721)"><g fill-rule="" class="tp-name"><g transform="scale(1)"><g><path d="M0 0L5.06-23.8 20.84-23.8 20.24-20.95 12.55-20.95 11.09-14.09 17.5-14.09 16.9-11.21 10.49-11.21 8.09 0 0 0ZM19.49-11.39L20.2-14.73Q22.11-15.67 24.12-16.1 26.12-16.53 28.59-16.53L28.59-16.53Q30.99-16.53 32.57-16.15 34.14-15.78 35.08-15.07 36.01-14.35 36.39-13.38 36.76-12.4 36.76-11.17L36.76-11.17Q36.76-10.46 36.67-9.63 36.58-8.81 36.46-8.24L36.46-8.24 34.7 0 28.67 0 28-2.4 27.77-2.4Q26.57-1.09 24.98-0.39 23.39 0.3 21.81 0.3L21.81 0.3Q20.91 0.3 20.05 0.04 19.19-0.22 18.51-0.77 17.84-1.31 17.43-2.15 17.01-3 17.01-4.2L17.01-4.2Q17.01-6.15 18.08-7.29 19.15-8.43 20.89-9.01 22.64-9.59 24.83-9.74 27.02-9.89 29.23-9.89L29.23-9.89Q29.31-10.27 29.42-10.96 29.53-11.66 29.53-12.18L29.53-12.18Q29.53-12.85 29.18-13.44 28.82-14.02 27.7-14.02L27.7-14.02Q26.38-14.02 25.77-13.25 25.15-12.48 24.96-11.39L24.96-11.39 19.49-11.39ZM28.22-5.25L28.82-8.13 28.14-8.13Q27.06-8.13 26.29-7.85 25.52-7.57 25.05-7.12 24.58-6.67 24.36-6.11 24.13-5.55 24.13-4.98L24.13-4.98Q24.13-4.08 24.6-3.64 25.07-3.19 25.71-3.19L25.71-3.19Q26.5-3.19 27.26-3.75 28.03-4.31 28.22-5.25L28.22-5.25ZM55.92-6.18L54.83-0.9Q53.25-0.26 51.51 0.02 49.77 0.3 47.56 0.3L47.56 0.3Q45.61 0.3 43.98-0.09 42.35-0.49 41.15-1.35 39.95-2.21 39.28-3.58 38.6-4.95 38.6-6.9L38.6-6.9Q38.6-8.92 39.29-10.66 39.99-12.4 41.39-13.72 42.8-15.03 44.97-15.78 47.15-16.53 50.14-16.53L50.14-16.53Q52.58-16.53 54.38-16.13 56.18-15.74 57.34-14.35L57.34-14.35 56.29-9.56 51.19-9.56Q51.23-10.19 51.27-10.68 51.31-11.17 51.31-11.77L51.31-11.77Q51.31-12.97 51.04-13.47 50.78-13.98 50.18-13.98L50.18-13.98Q49.13-13.98 48.34-12.95 47.56-11.92 47.05-10.47 46.55-9.03 46.3-7.44 46.06-5.85 46.06-4.72L46.06-4.72Q46.06-4.31 46.1-3.88 46.13-3.45 46.26-3.07 46.4-2.7 46.62-2.47 46.85-2.25 47.26-2.25L47.26-2.25Q47.63-2.25 48.12-2.47 48.61-2.7 49.06-3.17 49.51-3.64 49.92-4.38 50.33-5.13 50.56-6.18L50.56-6.18 55.92-6.18ZM76.41-7.53L65.88-7.53Q65.73-6.71 65.68-5.96 65.62-5.21 65.62-4.61L65.62-4.61Q65.62-4.27 65.66-3.86 65.7-3.45 65.83-3.09 65.96-2.74 66.2-2.49 66.45-2.25 66.9-2.25L66.9-2.25Q67.23-2.25 67.66-2.47 68.09-2.7 68.53-3.11 68.96-3.52 69.35-4.12 69.74-4.72 69.97-5.47L69.97-5.47 76.11-5.47 75.14-1.46Q74.39-0.97 73.42-0.64 72.44-0.3 71.36-0.09 70.27 0.11 69.14 0.21 68.02 0.3 67.01 0.3L67.01 0.3Q65.13 0.3 63.52-0.04 61.91-0.37 60.71-1.2 59.51-2.02 58.82-3.39 58.13-4.76 58.13-6.78L58.13-6.78Q58.13-8.62 58.71-10.38 59.29-12.14 60.66-13.51 62.02-14.88 64.33-15.7 66.63-16.53 70.08-16.53L70.08-16.53Q73.83-16.53 75.72-15.37 77.61-14.2 77.61-11.73L77.61-11.73Q77.61-10.72 77.31-9.54 77.01-8.36 76.41-7.53L76.41-7.53ZM70.87-11.99L70.87-11.99Q70.87-13.15 70.49-13.57 70.12-13.98 69.59-13.98L69.59-13.98Q68.99-13.98 68.49-13.59 67.98-13.19 67.57-12.54 67.16-11.88 66.82-11.04 66.48-10.19 66.26-9.26L66.26-9.26 70.53-9.26Q70.61-9.71 70.68-10.19L70.68-10.19Q70.76-10.61 70.81-11.09 70.87-11.58 70.87-11.99ZM88.52-10.27L90.24-10.27Q91.37-10.27 92.14-11.21 92.9-12.14 93.41-13.49 93.92-14.84 94.14-16.3 94.37-17.76 94.37-18.85L94.37-18.85Q94.37-19.86 94.03-20.56 93.69-21.25 92.57-21.25L92.57-21.25 90.88-21.25 88.52-10.27ZM90.13-7.87L88-7.87 86.31 0 78.21 0 83.27-23.8 91.93-23.8Q94.07-23.8 95.83-23.57 97.59-23.35 98.86-22.67 100.14-22 100.85-20.74 101.56-19.49 101.56-17.39L101.56-17.39Q101.56-15.44 100.94-13.7 100.32-11.96 98.96-10.66 97.59-9.37 95.42-8.62 93.24-7.87 90.13-7.87L90.13-7.87ZM119.4-7.53L108.87-7.53Q108.72-6.71 108.66-5.96 108.61-5.21 108.61-4.61L108.61-4.61Q108.61-4.27 108.64-3.86 108.68-3.45 108.81-3.09 108.94-2.74 109.19-2.49 109.43-2.25 109.88-2.25L109.88-2.25Q110.22-2.25 110.65-2.47 111.08-2.7 111.51-3.11 111.94-3.52 112.34-4.12 112.73-4.72 112.95-5.47L112.95-5.47 119.1-5.47 118.13-1.46Q117.38-0.97 116.4-0.64 115.43-0.3 114.34-0.09 113.25 0.11 112.13 0.21 111.01 0.3 109.99 0.3L109.99 0.3Q108.12 0.3 106.51-0.04 104.9-0.37 103.7-1.2 102.5-2.02 101.81-3.39 101.11-4.76 101.11-6.78L101.11-6.78Q101.11-8.62 101.69-10.38 102.27-12.14 103.64-13.51 105.01-14.88 107.31-15.7 109.62-16.53 113.07-16.53L113.07-16.53Q116.81-16.53 118.71-15.37 120.6-14.2 120.6-11.73L120.6-11.73Q120.6-10.72 120.3-9.54 120-8.36 119.4-7.53L119.4-7.53ZM113.85-11.99L113.85-11.99Q113.85-13.15 113.48-13.57 113.1-13.98 112.58-13.98L112.58-13.98Q111.98-13.98 111.47-13.59 110.97-13.19 110.56-12.54 110.14-11.88 109.81-11.04 109.47-10.19 109.24-9.26L109.24-9.26 113.52-9.26Q113.59-9.71 113.67-10.19L113.67-10.19Q113.74-10.61 113.8-11.09 113.85-11.58 113.85-11.99ZM120.82 0L124.23-16.11 130.34-16.11 130.91-13.3 131.17-13.3Q132.03-14.65 133.38-15.59 134.73-16.53 136.94-16.53L136.94-16.53Q137.09-16.53 137.41-16.51 137.73-16.49 138.12-16.4 138.51-16.3 138.94-16.13 139.38-15.97 139.79-15.67L139.79-15.67 138.14-7.95 134.05-7.95Q133.98-10.27 133.64-11.19 133.3-12.1 132.55-12.1L132.55-12.1Q132.18-12.1 131.75-11.94 131.32-11.77 130.87-11.21L130.87-11.21 128.47 0 120.82 0ZM151.93-25.18L148.56-9.29 157.29-16.11 162.24-16.11 154.78-10.01 160.36 0 151.97 0 148.14-7.53 146.57 0 138.93 0 144.25-25.18 151.93-25.18ZM178.13-11.39L173.25-11.39Q173.29-11.58 173.33-11.77 173.37-11.96 173.37-12.18L173.37-12.18Q173.37-12.85 173.12-13.44 172.88-14.02 172.17-14.02L172.17-14.02Q171.53-14.02 170.89-13.47 170.26-12.93 170.26-12.03L170.26-12.03Q170.26-11.43 170.57-11.07 170.89-10.72 171.42-10.49 171.94-10.27 172.6-10.12 173.25-9.97 173.89-9.82L173.89-9.82Q174.79-9.59 175.6-9.28 176.4-8.96 177.04-8.43 177.68-7.91 178.05-7.14 178.43-6.37 178.43-5.25L178.43-5.25Q178.43-3.67 177.7-2.6 176.96-1.54 175.67-0.88 174.38-0.22 172.64 0.04 170.89 0.3 168.91 0.3L168.91 0.3Q165.87 0.3 163.89-0.15 161.9-0.6 161.11-1.01L161.11-1.01 161.9-4.76 166.96-4.76Q166.92-4.57 166.92-4.4 166.92-4.23 166.92-4.05L166.92-4.05Q166.92-3.19 167.31-2.68 167.71-2.17 168.68-2.17L168.68-2.17Q169.77-2.17 170.24-2.79 170.71-3.41 170.71-3.94L170.71-3.94Q170.71-4.46 170.31-4.85 169.92-5.25 169.32-5.53 168.72-5.81 167.99-6.01 167.26-6.22 166.58-6.41L166.58-6.41Q166.1-6.52 165.48-6.78 164.86-7.05 164.3-7.53 163.74-8.02 163.36-8.79 162.99-9.56 162.99-10.72L162.99-10.72Q162.99-12.37 163.79-13.47 164.6-14.58 165.89-15.25 167.18-15.93 168.81-16.23 170.44-16.53 172.09-16.53L172.09-16.53Q174.15-16.53 175.99-16.15 177.83-15.78 178.99-15.18L178.99-15.18 178.13-11.39Z" transform="translate(0, 25.18000030517578)"></path></g> </g></g> </g></g></g><mask id="91dafe94-214e-4c8d-a1d6-122bd17f9e11"><g fill="white"><g><rect fill-opacity="1" stroke-width="2" x="0" y="0" width="150" height="149.86362410206712" class="image-rect"></rect> <svg x="0" y="0" width="150" height="149.86362410206712" class="image-svg-svg primary" style="overflow: visible;" filter="url(#colorsf2421842673)"><svg xmlns="http://www.w3.org/2000/svg" viewBox="0.7999999999999998 0.7999999999999998 114.5 114.4"><path d="M105.5 65.8l-47.4 47.4-7.8-7.8L90 65.7 58.1 34l7.8-7.8 31.9 31.9 7.7 7.7zM58.1 49.5l16.3 16.3 7.8-7.8-16.4-16.2-7.7 7.7zM34 58.1l16.3 16.3 7.8-7.8-16.3-16.3-7.8 7.8zm32.6 0L50.3 74.3l7.8 7.8 16.3-16.3-7.8-7.7zM58.1 34L41.8 50.3l7.8 7.8 16.3-16.3-7.8-7.8zm24 24.1L50.3 89.9 10.6 50.3l-7.8 7.8 47.4 47.4 7.8-7.8 31.9-31.9-7.8-7.7zm31.2 0L65.8 10.6 58 18.4 26.2 50.3l7.8 7.8 31.9-31.9 39.7 39.7 7.7-7.8zM65.8 10.6L58 2.8 10.6 50.3l7.8 7.8L50.3 90l7.8-7.8-31.9-31.9 39.6-39.7z" fill="none" stroke="#202121" stroke-width="4" stroke-miterlimit="10"></path></svg></svg> <defs> </defs></g></g> <g transform="translate(-14.495002746582031,62.19180774688721)"><rect fill="black" fill-opacity="1" x="-3.5" y="-3.5" width="185.99000549316406" height="32.48000144958496"></rect><rect fill="black" fill-opacity="1" x="-3.5" y="-3.5"></rect></g><g transform="translate(-14.495002746582031,62.19180774688721)" fill="black"><g fill-rule="" class="tp-name"><g transform="scale(1)"><g><path d="M0 0L5.06-23.8 20.84-23.8 20.24-20.95 12.55-20.95 11.09-14.09 17.5-14.09 16.9-11.21 10.49-11.21 8.09 0 0 0ZM19.49-11.39L20.2-14.73Q22.11-15.67 24.12-16.1 26.12-16.53 28.59-16.53L28.59-16.53Q30.99-16.53 32.57-16.15 34.14-15.78 35.08-15.07 36.01-14.35 36.39-13.38 36.76-12.4 36.76-11.17L36.76-11.17Q36.76-10.46 36.67-9.63 36.58-8.81 36.46-8.24L36.46-8.24 34.7 0 28.67 0 28-2.4 27.77-2.4Q26.57-1.09 24.98-0.39 23.39 0.3 21.81 0.3L21.81 0.3Q20.91 0.3 20.05 0.04 19.19-0.22 18.51-0.77 17.84-1.31 17.43-2.15 17.01-3 17.01-4.2L17.01-4.2Q17.01-6.15 18.08-7.29 19.15-8.43 20.89-9.01 22.64-9.59 24.83-9.74 27.02-9.89 29.23-9.89L29.23-9.89Q29.31-10.27 29.42-10.96 29.53-11.66 29.53-12.18L29.53-12.18Q29.53-12.85 29.18-13.44 28.82-14.02 27.7-14.02L27.7-14.02Q26.38-14.02 25.77-13.25 25.15-12.48 24.96-11.39L24.96-11.39 19.49-11.39ZM28.22-5.25L28.82-8.13 28.14-8.13Q27.06-8.13 26.29-7.85 25.52-7.57 25.05-7.12 24.58-6.67 24.36-6.11 24.13-5.55 24.13-4.98L24.13-4.98Q24.13-4.08 24.6-3.64 25.07-3.19 25.71-3.19L25.71-3.19Q26.5-3.19 27.26-3.75 28.03-4.31 28.22-5.25L28.22-5.25ZM55.92-6.18L54.83-0.9Q53.25-0.26 51.51 0.02 49.77 0.3 47.56 0.3L47.56 0.3Q45.61 0.3 43.98-0.09 42.35-0.49 41.15-1.35 39.95-2.21 39.28-3.58 38.6-4.95 38.6-6.9L38.6-6.9Q38.6-8.92 39.29-10.66 39.99-12.4 41.39-13.72 42.8-15.03 44.97-15.78 47.15-16.53 50.14-16.53L50.14-16.53Q52.58-16.53 54.38-16.13 56.18-15.74 57.34-14.35L57.34-14.35 56.29-9.56 51.19-9.56Q51.23-10.19 51.27-10.68 51.31-11.17 51.31-11.77L51.31-11.77Q51.31-12.97 51.04-13.47 50.78-13.98 50.18-13.98L50.18-13.98Q49.13-13.98 48.34-12.95 47.56-11.92 47.05-10.47 46.55-9.03 46.3-7.44 46.06-5.85 46.06-4.72L46.06-4.72Q46.06-4.31 46.1-3.88 46.13-3.45 46.26-3.07 46.4-2.7 46.62-2.47 46.85-2.25 47.26-2.25L47.26-2.25Q47.63-2.25 48.12-2.47 48.61-2.7 49.06-3.17 49.51-3.64 49.92-4.38 50.33-5.13 50.56-6.18L50.56-6.18 55.92-6.18ZM76.41-7.53L65.88-7.53Q65.73-6.71 65.68-5.96 65.62-5.21 65.62-4.61L65.62-4.61Q65.62-4.27 65.66-3.86 65.7-3.45 65.83-3.09 65.96-2.74 66.2-2.49 66.45-2.25 66.9-2.25L66.9-2.25Q67.23-2.25 67.66-2.47 68.09-2.7 68.53-3.11 68.96-3.52 69.35-4.12 69.74-4.72 69.97-5.47L69.97-5.47 76.11-5.47 75.14-1.46Q74.39-0.97 73.42-0.64 72.44-0.3 71.36-0.09 70.27 0.11 69.14 0.21 68.02 0.3 67.01 0.3L67.01 0.3Q65.13 0.3 63.52-0.04 61.91-0.37 60.71-1.2 59.51-2.02 58.82-3.39 58.13-4.76 58.13-6.78L58.13-6.78Q58.13-8.62 58.71-10.38 59.29-12.14 60.66-13.51 62.02-14.88 64.33-15.7 66.63-16.53 70.08-16.53L70.08-16.53Q73.83-16.53 75.72-15.37 77.61-14.2 77.61-11.73L77.61-11.73Q77.61-10.72 77.31-9.54 77.01-8.36 76.41-7.53L76.41-7.53ZM70.87-11.99L70.87-11.99Q70.87-13.15 70.49-13.57 70.12-13.98 69.59-13.98L69.59-13.98Q68.99-13.98 68.49-13.59 67.98-13.19 67.57-12.54 67.16-11.88 66.82-11.04 66.48-10.19 66.26-9.26L66.26-9.26 70.53-9.26Q70.61-9.71 70.68-10.19L70.68-10.19Q70.76-10.61 70.81-11.09 70.87-11.58 70.87-11.99ZM88.52-10.27L90.24-10.27Q91.37-10.27 92.14-11.21 92.9-12.14 93.41-13.49 93.92-14.84 94.14-16.3 94.37-17.76 94.37-18.85L94.37-18.85Q94.37-19.86 94.03-20.56 93.69-21.25 92.57-21.25L92.57-21.25 90.88-21.25 88.52-10.27ZM90.13-7.87L88-7.87 86.31 0 78.21 0 83.27-23.8 91.93-23.8Q94.07-23.8 95.83-23.57 97.59-23.35 98.86-22.67 100.14-22 100.85-20.74 101.56-19.49 101.56-17.39L101.56-17.39Q101.56-15.44 100.94-13.7 100.32-11.96 98.96-10.66 97.59-9.37 95.42-8.62 93.24-7.87 90.13-7.87L90.13-7.87ZM119.4-7.53L108.87-7.53Q108.72-6.71 108.66-5.96 108.61-5.21 108.61-4.61L108.61-4.61Q108.61-4.27 108.64-3.86 108.68-3.45 108.81-3.09 108.94-2.74 109.19-2.49 109.43-2.25 109.88-2.25L109.88-2.25Q110.22-2.25 110.65-2.47 111.08-2.7 111.51-3.11 111.94-3.52 112.34-4.12 112.73-4.72 112.95-5.47L112.95-5.47 119.1-5.47 118.13-1.46Q117.38-0.97 116.4-0.64 115.43-0.3 114.34-0.09 113.25 0.11 112.13 0.21 111.01 0.3 109.99 0.3L109.99 0.3Q108.12 0.3 106.51-0.04 104.9-0.37 103.7-1.2 102.5-2.02 101.81-3.39 101.11-4.76 101.11-6.78L101.11-6.78Q101.11-8.62 101.69-10.38 102.27-12.14 103.64-13.51 105.01-14.88 107.31-15.7 109.62-16.53 113.07-16.53L113.07-16.53Q116.81-16.53 118.71-15.37 120.6-14.2 120.6-11.73L120.6-11.73Q120.6-10.72 120.3-9.54 120-8.36 119.4-7.53L119.4-7.53ZM113.85-11.99L113.85-11.99Q113.85-13.15 113.48-13.57 113.1-13.98 112.58-13.98L112.58-13.98Q111.98-13.98 111.47-13.59 110.97-13.19 110.56-12.54 110.14-11.88 109.81-11.04 109.47-10.19 109.24-9.26L109.24-9.26 113.52-9.26Q113.59-9.71 113.67-10.19L113.67-10.19Q113.74-10.61 113.8-11.09 113.85-11.58 113.85-11.99ZM120.82 0L124.23-16.11 130.34-16.11 130.91-13.3 131.17-13.3Q132.03-14.65 133.38-15.59 134.73-16.53 136.94-16.53L136.94-16.53Q137.09-16.53 137.41-16.51 137.73-16.49 138.12-16.4 138.51-16.3 138.94-16.13 139.38-15.97 139.79-15.67L139.79-15.67 138.14-7.95 134.05-7.95Q133.98-10.27 133.64-11.19 133.3-12.1 132.55-12.1L132.55-12.1Q132.18-12.1 131.75-11.94 131.32-11.77 130.87-11.21L130.87-11.21 128.47 0 120.82 0ZM151.93-25.18L148.56-9.29 157.29-16.11 162.24-16.11 154.78-10.01 160.36 0 151.97 0 148.14-7.53 146.57 0 138.93 0 144.25-25.18 151.93-25.18ZM178.13-11.39L173.25-11.39Q173.29-11.58 173.33-11.77 173.37-11.96 173.37-12.18L173.37-12.18Q173.37-12.85 173.12-13.44 172.88-14.02 172.17-14.02L172.17-14.02Q171.53-14.02 170.89-13.47 170.26-12.93 170.26-12.03L170.26-12.03Q170.26-11.43 170.57-11.07 170.89-10.72 171.42-10.49 171.94-10.27 172.6-10.12 173.25-9.97 173.89-9.82L173.89-9.82Q174.79-9.59 175.6-9.28 176.4-8.96 177.04-8.43 177.68-7.91 178.05-7.14 178.43-6.37 178.43-5.25L178.43-5.25Q178.43-3.67 177.7-2.6 176.96-1.54 175.67-0.88 174.38-0.22 172.64 0.04 170.89 0.3 168.91 0.3L168.91 0.3Q165.87 0.3 163.89-0.15 161.9-0.6 161.11-1.01L161.11-1.01 161.9-4.76 166.96-4.76Q166.92-4.57 166.92-4.4 166.92-4.23 166.92-4.05L166.92-4.05Q166.92-3.19 167.31-2.68 167.71-2.17 168.68-2.17L168.68-2.17Q169.77-2.17 170.24-2.79 170.71-3.41 170.71-3.94L170.71-3.94Q170.71-4.46 170.31-4.85 169.92-5.25 169.32-5.53 168.72-5.81 167.99-6.01 167.26-6.22 166.58-6.41L166.58-6.41Q166.1-6.52 165.48-6.78 164.86-7.05 164.3-7.53 163.74-8.02 163.36-8.79 162.99-9.56 162.99-10.72L162.99-10.72Q162.99-12.37 163.79-13.47 164.6-14.58 165.89-15.25 167.18-15.93 168.81-16.23 170.44-16.53 172.09-16.53L172.09-16.53Q174.15-16.53 175.99-16.15 177.83-15.78 178.99-15.18L178.99-15.18 178.13-11.39Z" transform="translate(0, 25.18000030517578)"></path></g> </g></g> </g></mask><defs v-gra="od"></defs></g></svg>