<svg xmlns="http://www.w3.org/2000/svg" xmlns:xlink="http://www.w3.org/1999/xlink" version="1.0" x="0" y="0" width="2400" height="620.4484495110433" viewBox="44.54509719848633 92.56737503051758 250.90980560302734 64.86524993896484" preserveAspectRatio="xMidYMid meet" color-interpolation-filters="sRGB"><g><defs><linearGradient id="92" x1="0%" y1="0%" x2="100%" y2="0%"><stop offset="0%" stop-color="#fa71cd"></stop> <stop offset="100%" stop-color="#9b59b6"></stop></linearGradient><linearGradient id="93" x1="0%" y1="0%" x2="100%" y2="0%"><stop offset="0%" stop-color="#f9d423"></stop> <stop offset="100%" stop-color="#f83600"></stop></linearGradient><linearGradient id="94" x1="0%" y1="0%" x2="100%" y2="0%"><stop offset="0%" stop-color="#0064d2"></stop> <stop offset="100%" stop-color="#1cb0f6"></stop></linearGradient><linearGradient id="95" x1="0%" y1="0%" x2="100%" y2="0%"><stop offset="0%" stop-color="#f00978"></stop> <stop offset="100%" stop-color="#3f51b1"></stop></linearGradient><linearGradient id="96" x1="0%" y1="0%" x2="100%" y2="0%"><stop offset="0%" stop-color="#7873f5"></stop> <stop offset="100%" stop-color="#ec77ab"></stop></linearGradient><linearGradient id="97" x1="0%" y1="0%" x2="100%" y2="0%"><stop offset="0%" stop-color="#f9d423"></stop> <stop offset="100%" stop-color="#e14fad"></stop></linearGradient><linearGradient id="98" x1="0%" y1="0%" x2="100%" y2="0%"><stop offset="0%" stop-color="#009efd"></stop> <stop offset="100%" stop-color="#2af598"></stop></linearGradient><linearGradient id="99" x1="0%" y1="0%" x2="100%" y2="0%"><stop offset="0%" stop-color="#ffcc00"></stop> <stop offset="100%" stop-color="#00b140"></stop></linearGradient><linearGradient id="100" x1="0%" y1="0%" x2="100%" y2="0%"><stop offset="0%" stop-color="#d51007"></stop> <stop offset="100%" stop-color="#ff8177"></stop></linearGradient><linearGradient id="102" x1="0%" y1="0%" x2="100%" y2="0%"><stop offset="0%" stop-color="#a2b6df"></stop> <stop offset="100%" stop-color="#0c3483"></stop></linearGradient><linearGradient id="103" x1="0%" y1="0%" x2="100%" y2="0%"><stop offset="0%" stop-color="#7ac5d8"></stop> <stop offset="100%" stop-color="#eea2a2"></stop></linearGradient><linearGradient id="104" x1="0%" y1="0%" x2="100%" y2="0%"><stop offset="0%" stop-color="#00ecbc"></stop> <stop offset="100%" stop-color="#007adf"></stop></linearGradient><linearGradient id="105" x1="0%" y1="0%" x2="100%" y2="0%"><stop offset="0%" stop-color="#b88746"></stop> <stop offset="100%" stop-color="#fdf5a6"></stop></linearGradient></defs><g fill="#ffffff" class="icon-text-wrapper icon-svg-group iconsvg" transform="translate(47.00499725341797,95.02727508544922)"><g class="iconsvg-imagesvg" transform="translate(0,0)"><g><rect fill="#ffffff" fill-opacity="0" stroke-width="2" x="0" y="0" width="60" height="59.94544964082685" class="image-rect"></rect> <svg filter="url(#colors6623543337)" x="0" y="0" width="60" height="59.94544964082685" filtersec="colorsf3351463673" class="image-svg-svg primary" style="overflow: visible;"><svg xmlns="http://www.w3.org/2000/svg" viewBox="0.7999999999999998 0.7999999999999998 114.5 114.4"><path d="M105.5 65.8l-47.4 47.4-7.8-7.8L90 65.7 58.1 34l7.8-7.8 31.9 31.9 7.7 7.7zM58.1 49.5l16.3 16.3 7.8-7.8-16.4-16.2-7.7 7.7zM34 58.1l16.3 16.3 7.8-7.8-16.3-16.3-7.8 7.8zm32.6 0L50.3 74.3l7.8 7.8 16.3-16.3-7.8-7.7zM58.1 34L41.8 50.3l7.8 7.8 16.3-16.3-7.8-7.8zm24 24.1L50.3 89.9 10.6 50.3l-7.8 7.8 47.4 47.4 7.8-7.8 31.9-31.9-7.8-7.7zm31.2 0L65.8 10.6 58 18.4 26.2 50.3l7.8 7.8 31.9-31.9 39.7 39.7 7.7-7.8zM65.8 10.6L58 2.8 10.6 50.3l7.8 7.8L50.3 90l7.8-7.8-31.9-31.9 39.6-39.7z" fill="none" stroke="#202121" stroke-width="4" stroke-miterlimit="10"></path></svg></svg> <defs><filter id="colors6623543337"><feColorMatrix type="matrix" values="0 0 0 0 0.99609375  0 0 0 0 0.99609375  0 0 0 0 0.99609375  0 0 0 1 0" class="icon-feColorMatrix "></feColorMatrix></filter> <filter id="colorsf3351463673"><feColorMatrix type="matrix" values="0 0 0 0 0.99609375  0 0 0 0 0.99609375  0 0 0 0 0.99609375  0 0 0 1 0" class="icon-fecolormatrix"></feColorMatrix></filter> <filter id="colorsb6590947308"><feColorMatrix type="matrix" values="0 0 0 0 0  0 0 0 0 0  0 0 0 0 0  0 0 0 1 0" class="icon-fecolormatrix"></feColorMatrix></filter></defs></g></g> <g transform="translate(67,12.25094223022461)"><g fill-rule="" class="tp-name iconsvg-namesvg" transform="translate(0,0)"><g transform="scale(1)"><g><path d="M0 0L5.06-23.8 20.84-23.8 20.24-20.95 12.55-20.95 11.09-14.09 17.5-14.09 16.9-11.21 10.49-11.21 8.09 0 0 0ZM19.49-11.39L20.2-14.73Q22.11-15.67 24.12-16.1 26.12-16.53 28.59-16.53L28.59-16.53Q30.99-16.53 32.57-16.15 34.14-15.78 35.08-15.07 36.01-14.35 36.39-13.38 36.76-12.4 36.76-11.17L36.76-11.17Q36.76-10.46 36.67-9.63 36.58-8.81 36.46-8.24L36.46-8.24 34.7 0 28.67 0 28-2.4 27.77-2.4Q26.57-1.09 24.98-0.39 23.39 0.3 21.81 0.3L21.81 0.3Q20.91 0.3 20.05 0.04 19.19-0.22 18.51-0.77 17.84-1.31 17.43-2.15 17.01-3 17.01-4.2L17.01-4.2Q17.01-6.15 18.08-7.29 19.15-8.43 20.89-9.01 22.64-9.59 24.83-9.74 27.02-9.89 29.23-9.89L29.23-9.89Q29.31-10.27 29.42-10.96 29.53-11.66 29.53-12.18L29.53-12.18Q29.53-12.85 29.18-13.44 28.82-14.02 27.7-14.02L27.7-14.02Q26.38-14.02 25.77-13.25 25.15-12.48 24.96-11.39L24.96-11.39 19.49-11.39ZM28.22-5.25L28.82-8.13 28.14-8.13Q27.06-8.13 26.29-7.85 25.52-7.57 25.05-7.12 24.58-6.67 24.36-6.11 24.13-5.55 24.13-4.98L24.13-4.98Q24.13-4.08 24.6-3.64 25.07-3.19 25.71-3.19L25.71-3.19Q26.5-3.19 27.26-3.75 28.03-4.31 28.22-5.25L28.22-5.25ZM55.92-6.18L54.83-0.9Q53.25-0.26 51.51 0.02 49.77 0.3 47.56 0.3L47.56 0.3Q45.61 0.3 43.98-0.09 42.35-0.49 41.15-1.35 39.95-2.21 39.28-3.58 38.6-4.95 38.6-6.9L38.6-6.9Q38.6-8.92 39.29-10.66 39.99-12.4 41.39-13.72 42.8-15.03 44.97-15.78 47.15-16.53 50.14-16.53L50.14-16.53Q52.58-16.53 54.38-16.13 56.18-15.74 57.34-14.35L57.34-14.35 56.29-9.56 51.19-9.56Q51.23-10.19 51.27-10.68 51.31-11.17 51.31-11.77L51.31-11.77Q51.31-12.97 51.04-13.47 50.78-13.98 50.18-13.98L50.18-13.98Q49.13-13.98 48.34-12.95 47.56-11.92 47.05-10.47 46.55-9.03 46.3-7.44 46.06-5.85 46.06-4.72L46.06-4.72Q46.06-4.31 46.1-3.88 46.13-3.45 46.26-3.07 46.4-2.7 46.62-2.47 46.85-2.25 47.26-2.25L47.26-2.25Q47.63-2.25 48.12-2.47 48.61-2.7 49.06-3.17 49.51-3.64 49.92-4.38 50.33-5.13 50.56-6.18L50.56-6.18 55.92-6.18ZM76.41-7.53L65.88-7.53Q65.73-6.71 65.68-5.96 65.62-5.21 65.62-4.61L65.62-4.61Q65.62-4.27 65.66-3.86 65.7-3.45 65.83-3.09 65.96-2.74 66.2-2.49 66.45-2.25 66.9-2.25L66.9-2.25Q67.23-2.25 67.66-2.47 68.09-2.7 68.53-3.11 68.96-3.52 69.35-4.12 69.74-4.72 69.97-5.47L69.97-5.47 76.11-5.47 75.14-1.46Q74.39-0.97 73.42-0.64 72.44-0.3 71.36-0.09 70.27 0.11 69.14 0.21 68.02 0.3 67.01 0.3L67.01 0.3Q65.13 0.3 63.52-0.04 61.91-0.37 60.71-1.2 59.51-2.02 58.82-3.39 58.13-4.76 58.13-6.78L58.13-6.78Q58.13-8.62 58.71-10.38 59.29-12.14 60.66-13.51 62.02-14.88 64.33-15.7 66.63-16.53 70.08-16.53L70.08-16.53Q73.83-16.53 75.72-15.37 77.61-14.2 77.61-11.73L77.61-11.73Q77.61-10.72 77.31-9.54 77.01-8.36 76.41-7.53L76.41-7.53ZM70.87-11.99L70.87-11.99Q70.87-13.15 70.49-13.57 70.12-13.98 69.59-13.98L69.59-13.98Q68.99-13.98 68.49-13.59 67.98-13.19 67.57-12.54 67.16-11.88 66.82-11.04 66.48-10.19 66.26-9.26L66.26-9.26 70.53-9.26Q70.61-9.71 70.68-10.19L70.68-10.19Q70.76-10.61 70.81-11.09 70.87-11.58 70.87-11.99ZM88.52-10.27L90.24-10.27Q91.37-10.27 92.14-11.21 92.9-12.14 93.41-13.49 93.92-14.84 94.14-16.3 94.37-17.76 94.37-18.85L94.37-18.85Q94.37-19.86 94.03-20.56 93.69-21.25 92.57-21.25L92.57-21.25 90.88-21.25 88.52-10.27ZM90.13-7.87L88-7.87 86.31 0 78.21 0 83.27-23.8 91.93-23.8Q94.07-23.8 95.83-23.57 97.59-23.35 98.86-22.67 100.14-22 100.85-20.74 101.56-19.49 101.56-17.39L101.56-17.39Q101.56-15.44 100.94-13.7 100.32-11.96 98.96-10.66 97.59-9.37 95.42-8.62 93.24-7.87 90.13-7.87L90.13-7.87ZM119.4-7.53L108.87-7.53Q108.72-6.71 108.66-5.96 108.61-5.21 108.61-4.61L108.61-4.61Q108.61-4.27 108.64-3.86 108.68-3.45 108.81-3.09 108.94-2.74 109.19-2.49 109.43-2.25 109.88-2.25L109.88-2.25Q110.22-2.25 110.65-2.47 111.08-2.7 111.51-3.11 111.94-3.52 112.34-4.12 112.73-4.72 112.95-5.47L112.95-5.47 119.1-5.47 118.13-1.46Q117.38-0.97 116.4-0.64 115.43-0.3 114.34-0.09 113.25 0.11 112.13 0.21 111.01 0.3 109.99 0.3L109.99 0.3Q108.12 0.3 106.51-0.04 104.9-0.37 103.7-1.2 102.5-2.02 101.81-3.39 101.11-4.76 101.11-6.78L101.11-6.78Q101.11-8.62 101.69-10.38 102.27-12.14 103.64-13.51 105.01-14.88 107.31-15.7 109.62-16.53 113.07-16.53L113.07-16.53Q116.81-16.53 118.71-15.37 120.6-14.2 120.6-11.73L120.6-11.73Q120.6-10.72 120.3-9.54 120-8.36 119.4-7.53L119.4-7.53ZM113.85-11.99L113.85-11.99Q113.85-13.15 113.48-13.57 113.1-13.98 112.58-13.98L112.58-13.98Q111.98-13.98 111.47-13.59 110.97-13.19 110.56-12.54 110.14-11.88 109.81-11.04 109.47-10.19 109.24-9.26L109.24-9.26 113.52-9.26Q113.59-9.71 113.67-10.19L113.67-10.19Q113.74-10.61 113.8-11.09 113.85-11.58 113.85-11.99ZM120.82 0L124.23-16.11 130.34-16.11 130.91-13.3 131.17-13.3Q132.03-14.65 133.38-15.59 134.73-16.53 136.94-16.53L136.94-16.53Q137.09-16.53 137.41-16.51 137.73-16.49 138.12-16.4 138.51-16.3 138.94-16.13 139.38-15.97 139.79-15.67L139.79-15.67 138.14-7.95 134.05-7.95Q133.98-10.27 133.64-11.19 133.3-12.1 132.55-12.1L132.55-12.1Q132.18-12.1 131.75-11.94 131.32-11.77 130.87-11.21L130.87-11.21 128.47 0 120.82 0ZM151.93-25.18L148.56-9.29 157.29-16.11 162.24-16.11 154.78-10.01 160.36 0 151.97 0 148.14-7.53 146.57 0 138.93 0 144.25-25.18 151.93-25.18ZM178.13-11.39L173.25-11.39Q173.29-11.58 173.33-11.77 173.37-11.96 173.37-12.18L173.37-12.18Q173.37-12.85 173.12-13.44 172.88-14.02 172.17-14.02L172.17-14.02Q171.53-14.02 170.89-13.47 170.26-12.93 170.26-12.03L170.26-12.03Q170.26-11.43 170.57-11.07 170.89-10.72 171.42-10.49 171.94-10.27 172.6-10.12 173.25-9.97 173.89-9.82L173.89-9.82Q174.79-9.59 175.6-9.28 176.4-8.96 177.04-8.43 177.68-7.91 178.05-7.14 178.43-6.37 178.43-5.25L178.43-5.25Q178.43-3.67 177.7-2.6 176.96-1.54 175.67-0.88 174.38-0.22 172.64 0.04 170.89 0.3 168.91 0.3L168.91 0.3Q165.87 0.3 163.89-0.15 161.9-0.6 161.11-1.01L161.11-1.01 161.9-4.76 166.96-4.76Q166.92-4.57 166.92-4.4 166.92-4.23 166.92-4.05L166.92-4.05Q166.92-3.19 167.31-2.68 167.71-2.17 168.68-2.17L168.68-2.17Q169.77-2.17 170.24-2.79 170.71-3.41 170.71-3.94L170.71-3.94Q170.71-4.46 170.31-4.85 169.92-5.25 169.32-5.53 168.72-5.81 167.99-6.01 167.26-6.22 166.58-6.41L166.58-6.41Q166.1-6.52 165.48-6.78 164.86-7.05 164.3-7.53 163.74-8.02 163.36-8.79 162.99-9.56 162.99-10.72L162.99-10.72Q162.99-12.37 163.79-13.47 164.6-14.58 165.89-15.25 167.18-15.93 168.81-16.23 170.44-16.53 172.09-16.53L172.09-16.53Q174.15-16.53 175.99-16.15 177.83-15.78 178.99-15.18L178.99-15.18 178.13-11.39Z" transform="translate(0, 25.18000030517578)"></path></g> </g></g> <g fill-rule="" class="tp-slogan iconsvg-slogansvg" fill="#ffffff" transform="translate(1.8600082397460938,31.48000144958496)"><rect width="0"></rect> <rect x="178.26998901367188" width="0"></rect> <g transform="translate(0,0)"><g transform="scale(1)"><path d="M2.84-1.72L0.98-1.72L0.98 0L0.46 0L0.46-3.80L3.09-3.80L3.09-3.36L0.98-3.36L0.98-2.18L2.84-2.18L2.84-1.72ZM6.05 0L5.68-1.10L4.14-1.10L3.75 0L3.23 0L4.66-3.80L5.24-3.80L6.61 0L6.05 0ZM4.91-3.24L4.31-1.56L5.49-1.56L4.93-3.24L4.91-3.24ZM10.17-2.68L10.17-2.68L9.68-2.68Q9.49-3.45 8.62-3.47L8.62-3.47Q7.41-3.41 7.37-1.93L7.37-1.93Q7.37-0.35 8.64-0.35L8.64-0.35Q9.51-0.37 9.72-1.41L9.72-1.41L10.22-1.41Q9.99 0.02 8.53 0.06L8.53 0.06Q6.87 0 6.83-1.91L6.83-1.91Q6.91-3.82 8.62-3.90L8.62-3.90Q9.97-3.86 10.17-2.68ZM11.33-0.46L13.61-0.46L13.61 0L10.81 0L10.81-3.80L13.57-3.80L13.57-3.36L11.33-3.36L11.33-2.18L13.40-2.18L13.40-1.72L11.33-1.72L11.33-0.46ZM15.82-3.38L14.78-3.38L14.78-2.06L15.80-2.06Q16.59-2.06 16.59-2.74L16.59-2.74Q16.59-3.36 15.82-3.38L15.82-3.38ZM15.99-1.60L14.78-1.60L14.78 0L14.26 0L14.26-3.80L15.99-3.80Q17.07-3.76 17.11-2.74L17.11-2.74Q17.05-1.64 15.99-1.60L15.99-1.60ZM18.24-0.46L20.52-0.46L20.52 0L17.72 0L17.72-3.80L20.48-3.80L20.48-3.36L18.24-3.36L18.24-2.18L20.32-2.18L20.32-1.72L18.24-1.72L18.24-0.46ZM22.94-1.64L21.70-1.64L21.70 0L21.18 0L21.18-3.80L22.94-3.80Q24.21-3.80 24.21-2.78L24.21-2.78Q24.21-2.16 23.67-1.87L23.67-1.87Q24.13-1.74 24.13-1.14L24.13-1.14L24.17-0.46Q24.15-0.17 24.36-0.08L24.36-0.08L24.36 0L23.71 0Q23.65-0.27 23.63-0.96L23.63-0.96Q23.65-1.64 22.94-1.64L22.94-1.64ZM22.99-3.38L21.70-3.38L21.70-2.08L22.90-2.08Q23.67-2.08 23.67-2.74L23.67-2.74Q23.67-3.38 22.99-3.38L22.99-3.38ZM25.99-1.91L25.38-1.35L25.38 0L24.86 0L24.86-3.80L25.38-3.80L25.38-1.95L27.23-3.80L27.96-3.80L26.36-2.26L28.00 0L27.31 0L25.99-1.91ZM31.10-2.70L31.10-2.70L30.63-2.70Q30.58-3.43 29.67-3.47L29.67-3.47Q28.82-3.45 28.82-2.80L28.82-2.80Q28.82-2.39 29.28-2.33L29.28-2.33L30.36-2.08Q31.21-1.87 31.21-1.04L31.21-1.04Q31.19 0.02 29.71 0.06L29.71 0.06Q28.90 0.06 28.57-0.27L28.57-0.27Q28.16-0.58 28.18-1.23L28.18-1.23L28.67-1.23Q28.69-0.35 29.71-0.33L29.71-0.33Q30.71-0.35 30.73-0.98L30.73-0.98Q30.81-1.49 29.90-1.66L29.90-1.66L29.11-1.83Q28.30-2.06 28.30-2.74L28.30-2.74Q28.36-3.86 29.63-3.90L29.63-3.90Q31.06-3.90 31.10-2.70ZM31.84-0.56L32.40-0.56L32.40 0L31.84 0L31.84-0.56ZM31.84-2.74L32.40-2.74L32.40-2.18L31.84-2.18L31.84-2.74ZM37.09-1.41L37.09-3.80L37.61-3.80L37.61-1.35Q37.55 0.02 36.06 0.06L36.06 0.06Q34.66 0.02 34.60-1.27L34.60-1.27L34.60-3.80L35.12-3.80L35.12-1.41Q35.14-0.37 36.08-0.35L36.08-0.35Q37.09-0.37 37.09-1.41L37.09-1.41ZM38.95-3.80L40.86-0.73L40.86-3.80L41.36-3.80L41.36 0L40.78 0L38.85-3.07L38.83-3.07L38.83 0L38.33 0L38.33-3.80L38.95-3.80ZM42.08-3.80L42.60-3.80L42.60-0.46L44.53-0.46L44.53 0L42.08 0L42.08-3.80ZM47.96-1.89L47.96-1.89Q47.88-3.38 46.63-3.47L46.63-3.47Q45.37-3.41 45.31-1.89L45.31-1.89Q45.37-0.42 46.63-0.35L46.63-0.35Q47.88-0.44 47.96-1.89ZM48.48-1.89L48.48-1.89Q48.36 0 46.63 0.06L46.63 0.06Q44.89 0 44.77-1.89L44.77-1.89Q44.87-3.86 46.63-3.90L46.63-3.90Q48.36-3.84 48.48-1.89ZM52.19-2.68L52.19-2.68L51.69-2.68Q51.50-3.45 50.63-3.47L50.63-3.47Q49.43-3.41 49.39-1.93L49.39-1.93Q49.39-0.35 50.65-0.35L50.65-0.35Q51.52-0.37 51.73-1.41L51.73-1.41L52.23-1.41Q52.00 0.02 50.55 0.06L50.55 0.06Q48.89 0 48.85-1.91L48.85-1.91Q48.93-3.82 50.63-3.90L50.63-3.90Q51.98-3.86 52.19-2.68ZM53.88-1.91L53.28-1.35L53.28 0L52.76 0L52.76-3.80L53.28-3.80L53.28-1.95L55.13-3.80L55.85-3.80L54.25-2.26L55.89 0L55.21 0L53.88-1.91ZM59.24-3.38L58.20-3.38L58.20-2.06L59.22-2.06Q60.01-2.06 60.01-2.74L60.01-2.74Q60.01-3.36 59.24-3.38L59.24-3.38ZM59.40-1.60L58.20-1.60L58.20 0L57.68 0L57.68-3.80L59.40-3.80Q60.48-3.76 60.53-2.74L60.53-2.74Q60.46-1.64 59.40-1.60L59.40-1.60ZM61.66-0.46L63.94-0.46L63.94 0L61.14 0L61.14-3.80L63.90-3.80L63.90-3.36L61.66-3.36L61.66-2.18L63.73-2.18L63.73-1.72L61.66-1.72L61.66-0.46ZM66.36-1.64L65.11-1.64L65.11 0L64.59 0L64.59-3.80L66.36-3.80Q67.63-3.80 67.63-2.78L67.63-2.78Q67.63-2.16 67.09-1.87L67.09-1.87Q67.54-1.74 67.54-1.14L67.54-1.14L67.58-0.46Q67.56-0.17 67.77-0.08L67.77-0.08L67.77 0L67.13 0Q67.07-0.27 67.04-0.96L67.04-0.96Q67.07-1.64 66.36-1.64L66.36-1.64ZM66.40-3.38L65.11-3.38L65.11-2.08L66.32-2.08Q67.09-2.08 67.09-2.74L67.09-2.74Q67.09-3.38 66.40-3.38L66.40-3.38ZM71.06-2.70L71.06-2.70L70.58-2.70Q70.54-3.43 69.63-3.47L69.63-3.47Q68.78-3.45 68.78-2.80L68.78-2.80Q68.78-2.39 69.24-2.33L69.24-2.33L70.31-2.08Q71.17-1.87 71.17-1.04L71.17-1.04Q71.15 0.02 69.67 0.06L69.67 0.06Q68.86 0.06 68.53-0.27L68.53-0.27Q68.11-0.58 68.13-1.23L68.13-1.23L68.63-1.23Q68.65-0.35 69.67-0.33L69.67-0.33Q70.67-0.35 70.69-0.98L70.69-0.98Q70.77-1.49 69.86-1.66L69.86-1.66L69.07-1.83Q68.26-2.06 68.26-2.74L68.26-2.74Q68.32-3.86 69.59-3.90L69.59-3.90Q71.02-3.90 71.06-2.70ZM74.75-1.89L74.75-1.89Q74.66-3.38 73.42-3.47L73.42-3.47Q72.15-3.41 72.09-1.89L72.09-1.89Q72.15-0.42 73.42-0.35L73.42-0.35Q74.66-0.44 74.75-1.89ZM75.27-1.89L75.27-1.89Q75.14 0 73.42 0.06L73.42 0.06Q71.67 0 71.55-1.89L71.55-1.89Q71.65-3.86 73.42-3.90L73.42-3.90Q75.14-3.84 75.27-1.89ZM76.42-3.80L78.33-0.73L78.33-3.80L78.83-3.80L78.83 0L78.25 0L76.32-3.07L76.29-3.07L76.29 0L75.80 0L75.80-3.80L76.42-3.80ZM82.06 0L81.68-1.10L80.15-1.10L79.75 0L79.23 0L80.67-3.80L81.25-3.80L82.62 0L82.06 0ZM80.91-3.24L80.31-1.56L81.50-1.56L80.94-3.24L80.91-3.24ZM83.00-3.80L83.52-3.80L83.52-0.46L85.45-0.46L85.45 0L83.00 0L83.00-3.80ZM85.96-3.80L86.48-3.80L86.48 0L85.96 0L85.96-3.80ZM87.65-0.46L90.00-0.46L90.00 0L87.01 0L87.01-0.42L89.33-3.36L87.17-3.36L87.17-3.80L90.00-3.80L90.00-3.36L87.65-0.46ZM91.01-0.46L93.29-0.46L93.29 0L90.49 0L90.49-3.80L93.25-3.80L93.25-3.36L91.01-3.36L91.01-2.18L93.08-2.18L93.08-1.72L91.01-1.72L91.01-0.46ZM95.44 0L93.90 0L93.90-3.80L95.46-3.80Q97.00-3.72 97.06-1.95L97.06-1.95Q96.98-0.04 95.44 0L95.44 0ZM95.38-3.38L94.42-3.38L94.42-0.44L95.42-0.44Q96.50-0.50 96.54-1.91L96.54-1.91Q96.52-3.34 95.38-3.38L95.38-3.38ZM100.86-1.64L99.61-1.64L99.61 0L99.09 0L99.09-3.80L100.86-3.80Q102.12-3.80 102.12-2.78L102.12-2.78Q102.12-2.16 101.58-1.87L101.58-1.87Q102.04-1.74 102.04-1.14L102.04-1.14L102.08-0.46Q102.06-0.17 102.27-0.08L102.27-0.08L102.27 0L101.63 0Q101.56-0.27 101.54-0.96L101.54-0.96Q101.56-1.64 100.86-1.64L100.86-1.64ZM100.90-3.38L99.61-3.38L99.61-2.08L100.82-2.08Q101.58-2.08 101.58-2.74L101.58-2.74Q101.58-3.38 100.90-3.38L100.90-3.38ZM103.36-0.46L105.64-0.46L105.64 0L102.84 0L102.84-3.80L105.60-3.80L105.60-3.36L103.36-3.36L103.36-2.18L105.44-2.18L105.44-1.72L103.36-1.72L103.36-0.46ZM108.35-3.16L108.33-3.16L107.46 0L106.92 0L105.92-3.80L106.46-3.80L107.19-0.71L107.21-0.71L108.06-3.80L108.62-3.80L109.47-0.71L109.50-0.71L110.20-3.80L110.76-3.80L109.77 0L109.23 0L108.35-3.16ZM113.68 0L113.31-1.10L111.77-1.10L111.37 0L110.86 0L112.29-3.80L112.87-3.80L114.24 0L113.68 0ZM112.54-3.24L111.93-1.56L113.12-1.56L112.56-3.24L112.54-3.24ZM116.45-1.64L115.21-1.64L115.21 0L114.69 0L114.69-3.80L116.45-3.80Q117.72-3.80 117.72-2.78L117.72-2.78Q117.72-2.16 117.18-1.87L117.18-1.87Q117.63-1.74 117.63-1.14L117.63-1.14L117.68-0.46Q117.66-0.17 117.86-0.08L117.86-0.08L117.86 0L117.22 0Q117.16-0.27 117.14-0.96L117.14-0.96Q117.16-1.64 116.45-1.64L116.45-1.64ZM116.49-3.38L115.21-3.38L115.21-2.08L116.41-2.08Q117.18-2.08 117.18-2.74L117.18-2.74Q117.18-3.38 116.49-3.38L116.49-3.38ZM119.93 0L118.39 0L118.39-3.80L119.95-3.80Q121.49-3.72 121.55-1.95L121.55-1.95Q121.47-0.04 119.93 0L119.93 0ZM119.87-3.38L118.91-3.38L118.91-0.44L119.91-0.44Q120.99-0.50 121.03-1.91L121.03-1.91Q121.01-3.34 119.87-3.38L119.87-3.38ZM124.90-2.70L124.90-2.70L124.42-2.70Q124.38-3.43 123.47-3.47L123.47-3.47Q122.62-3.45 122.62-2.80L122.62-2.80Q122.62-2.39 123.07-2.33L123.07-2.33L124.15-2.08Q125.01-1.87 125.01-1.04L125.01-1.04Q124.98 0.02 123.51 0.06L123.51 0.06Q122.70 0.06 122.37-0.27L122.37-0.27Q121.95-0.58 121.97-1.23L121.97-1.23L122.47-1.23Q122.49-0.35 123.51-0.33L123.51-0.33Q124.51-0.35 124.53-0.98L124.53-0.98Q124.61-1.49 123.70-1.66L123.70-1.66L122.91-1.83Q122.10-2.06 122.10-2.74L122.10-2.74Q122.16-3.86 123.43-3.90L123.43-3.90Q124.86-3.90 124.90-2.70ZM129.10-3.16L129.08-3.16L128.20 0L127.66 0L126.67-3.80L127.21-3.80L127.93-0.71L127.95-0.71L128.81-3.80L129.37-3.80L130.22-0.71L130.24-0.71L130.94-3.80L131.50-3.80L130.51 0L129.97 0L129.10-3.16ZM131.99-3.80L132.51-3.80L132.51 0L131.99 0L131.99-3.80ZM134.29-3.36L133.00-3.36L133.00-3.80L136.07-3.80L136.07-3.36L134.78-3.36L134.78 0L134.29 0L134.29-3.36ZM136.98-2.24L138.97-2.24L138.97-3.80L139.49-3.80L139.49 0L138.97 0L138.97-1.76L136.98-1.76L136.98 0L136.46 0L136.46-3.80L136.98-3.80L136.98-2.24ZM141.29-0.85L141.29-1.23L141.77-1.23L141.77-0.96Q141.77-0.33 142.35-0.33L142.35-0.33Q142.96-0.33 142.96-1.00L142.96-1.00L142.96-3.80L143.47-3.80L143.47-1.02Q143.45 0.04 142.37 0.06L142.37 0.06Q141.36 0.04 141.29-0.85L141.29-0.85ZM146.70-1.41L146.70-3.80L147.22-3.80L147.22-1.35Q147.16 0.02 145.66 0.06L145.66 0.06Q144.27 0.02 144.21-1.27L144.21-1.27L144.21-3.80L144.73-3.80L144.73-1.41Q144.75-0.37 145.69-0.35L145.69-0.35Q146.70-0.37 146.70-1.41L146.70-1.41ZM150.72-2.70L150.72-2.70L150.24-2.70Q150.20-3.43 149.29-3.47L149.29-3.47Q148.44-3.45 148.44-2.80L148.44-2.80Q148.44-2.39 148.89-2.33L148.89-2.33L149.97-2.08Q150.82-1.87 150.82-1.04L150.82-1.04Q150.80 0.02 149.33 0.06L149.33 0.06Q148.52 0.06 148.19-0.27L148.19-0.27Q147.77-0.58 147.79-1.23L147.79-1.23L148.29-1.23Q148.31-0.35 149.33-0.33L149.33-0.33Q150.33-0.35 150.35-0.98L150.35-0.98Q150.43-1.49 149.52-1.66L149.52-1.66L148.73-1.83Q147.92-2.06 147.92-2.74L147.92-2.74Q147.98-3.86 149.25-3.90L149.25-3.90Q150.68-3.90 150.72-2.70ZM152.37-3.36L151.08-3.36L151.08-3.80L154.16-3.80L154.16-3.36L152.87-3.36L152.87 0L152.37 0L152.37-3.36ZM158.46 0L158.08-1.10L156.54-1.10L156.15 0L155.63 0L157.06-3.80L157.65-3.80L159.02 0L158.46 0ZM157.31-3.24L156.71-1.56L157.89-1.56L157.33-3.24L157.31-3.24ZM163.58-2.70L163.58-2.70L163.11-2.70Q163.06-3.43 162.15-3.47L162.15-3.47Q161.30-3.45 161.30-2.80L161.30-2.80Q161.30-2.39 161.76-2.33L161.76-2.33L162.84-2.08Q163.69-1.87 163.69-1.04L163.69-1.04Q163.67 0.02 162.19 0.06L162.19 0.06Q161.38 0.06 161.05-0.27L161.05-0.27Q160.64-0.58 160.66-1.23L160.66-1.23L161.15-1.23Q161.17-0.35 162.19-0.33L162.19-0.33Q163.19-0.35 163.21-0.98L163.21-0.98Q163.29-1.49 162.38-1.66L162.38-1.66L161.59-1.83Q160.78-2.06 160.78-2.74L160.78-2.74Q160.84-3.86 162.11-3.90L162.11-3.90Q163.54-3.90 163.58-2.70ZM167.91-3.80L167.91 0L167.41 0L167.41-2.24Q167.41-2.55 167.41-3.20L167.41-3.20L166.33 0L165.82 0L164.76-3.20L164.74-3.20Q164.74-2.97 164.76-2.51L164.76-2.51Q164.76-2.28 164.76-2.24L164.76-2.24L164.76 0L164.24 0L164.24-3.80L164.99-3.80L166.09-0.58L167.17-3.80L167.91-3.80ZM168.67-3.80L169.19-3.80L169.19 0L168.67 0L168.67-3.80ZM169.99-3.80L170.51-3.80L170.51-0.46L172.44-0.46L172.44 0L169.99 0L169.99-3.80ZM173.45-0.46L175.73-0.46L175.73 0L172.93 0L172.93-3.80L175.69-3.80L175.69-3.36L173.45-3.36L173.45-2.18L175.52-2.18L175.52-1.72L173.45-1.72L173.45-0.46Z" transform="translate(-0.4568000922828469, 3.90356442496251)"></path></g></g></g></g></g><defs v-gra="od"></defs></g></svg>